# xmcd
#
# Track frame offsets: 
#        150
#        14324
#        34014
#        50686
#        69082
#        86309
#        100675
#        122402
#        144119
#        162713
#        179783
#        200544
#        215853
#        227243
#        240459
#
# Disc length: 9558 seconds
#
# Revision: 0
# Processed by: cddbd v1.5.2PL0 Copyright (c) Steve Scherf et al.
# Submitted via: ExactAudioCopy v1.0b1
#
DISCID=cb25540f
DTITLE=Bob Margolin - My Blues and My Guitar
DYEAR=1995
DGENRE=General Blues
TTITLE0=Movin' South
TTITLE1=Maybe The Hippies Were Right
TTITLE2=The Same Thing
TTITLE3=Rip It Up
TTITLE4=Blues Lover
TTITLE5=Drip Drop
TTITLE6=Falling Star
TTITLE7=The Door Was Open
TTITLE8=Just A Bad Dream
TTITLE9=See Me In The Evening
TTITLE10=Going Home
TTITLE11=I Can Get Behind That
TTITLE12=Last Time
TTITLE13=Peace Of Mind
TTITLE14=My Old Friend
EXTD=
EXTT0=
EXTT1=
EXTT2=
EXTT3=
EXTT4=
EXTT5=
EXTT6=
EXTT7=
EXTT8=
EXTT9=
EXTT10=
EXTT11=
EXTT12=
EXTT13=
EXTT14=
PLAYORDER=
